# xmcd
# 
# Track frame offsets:
#     150
#     38683
#     61557
#     82492
#     108496
#     127553
#     150970
#     168067
#     199040
# 
# Disc length: 3173
# 
# Revision: 1
# Processed by: cddbd v1.5.2PL0 Copyright (c) Steve Scherf et al.
# Submitted via: BonkEnc v1.0.8
# 
DISCID=5e0c6309
DTITLE=Roberto Olzer - Eveline
DYEAR=2003
DGENRE=Contemporary Jazz
TTITLE0=Grace
TTITLE1=Still to Bill
TTITLE2=The Frog
TTITLE3=A Ballad
TTITLE4=Roots
TTITLE5=Forward
TTITLE6=Eveline
TTITLE7=Blues By 4
TTITLE8=Atlantis
EXTD=YEAR: 2003
EXTT0=
EXTT1=
EXTT2=
EXTT3=
EXTT4=
EXTT5=
EXTT6=
EXTT7=
EXTT8=
PLAYORDER=
